HIERARCHY
ROOT mixamorig:Hips
{
	OFFSET 0.000000 102.625267 -0.521241
	CHANNELS 6 Xposition Yposition Zposition Xrotation Yrotation Zrotation
	JOINT mixamorig:Spine
	{
		OFFSET 0.000000 5.645721 -0.031929
		CHANNELS 3 Xrotation Yrotation Zrotation
		JOINT mixamorig:Spine1
		{
			OFFSET 0.000000 6.586685 -0.037251
			CHANNELS 3 Xrotation Yrotation Zrotation
			JOINT mixamorig:Spine2
			{
				OFFSET 0.000000 7.527618 -0.042572
				CHANNELS 3 Xrotation Yrotation Zrotation
				JOINT mixamorig:Neck
				{
					OFFSET 0.000000 8.468590 -0.047894
					CHANNELS 3 Xrotation Yrotation Zrotation
					JOINT mixamorig:Head
					{
						OFFSET 0.000000 5.998901 -1.158958
						CHANNELS 3 Xrotation Yrotation Zrotation
						JOINT mixamorig:HeadTop_End
						{
							OFFSET 0.000000 21.748810 -4.201760
							CHANNELS 3 Xrotation Yrotation Zrotation
							End Site
							{
								OFFSET 0.000000 22.150970 0.000000
							}
						}
					}
				}
				JOINT mixamorig:LeftShoulder
				{
					OFFSET 3.414614 7.343132 -0.058928
					CHANNELS 3 Xrotation Yrotation Zrotation
					JOINT mixamorig:LeftArm
					{
						OFFSET 6.829548 -2.246910 -0.022071
						CHANNELS 3 Xrotation Yrotation Zrotation
						JOINT mixamorig:LeftForeArm
						{
							OFFSET 24.198503 -0.424179 0.257802
							CHANNELS 3 Xrotation Yrotation Zrotation
							JOINT mixamorig:LeftHand
							{
								OFFSET 21.584717 -0.002335 0.669575
								CHANNELS 3 Xrotation Yrotation Zrotation
								JOINT mixamorig:LeftHandThumb1
								{
									OFFSET 2.193897 -1.259628 1.956942
									CHANNELS 3 Xrotation Yrotation Zrotation
									JOINT mixamorig:LeftHandThumb2
									{
										OFFSET 1.755203 -1.007660 1.565605
										CHANNELS 3 Xrotation Yrotation Zrotation
										JOINT mixamorig:LeftHandThumb3
										{
											OFFSET 2.535126 -0.998764 1.490660
											CHANNELS 3 Xrotation Yrotation Zrotation
											JOINT mixamorig:LeftHandThumb4
											{
												OFFSET 2.398251 -0.721657 1.023775
												CHANNELS 3 Xrotation Yrotation Zrotation
												End Site
												{
													OFFSET 2.205696 -0.773872 1.362551
												}
											}
										}
									}
								}
								JOINT mixamorig:LeftHandIndex1
								{
									OFFSET 7.166248 -0.069405 2.369028
									CHANNELS 3 Xrotation Yrotation Zrotation
									JOINT mixamorig:LeftHandIndex2
									{
										OFFSET 2.989986 -0.015724 0.245918
										CHANNELS 3 Xrotation Yrotation Zrotation
										JOINT mixamorig:LeftHandIndex3
										{
											OFFSET 2.739197 -0.058952 0.219132
											CHANNELS 3 Xrotation Yrotation Zrotation
											JOINT mixamorig:LeftHandIndex4
											{
												OFFSET 2.326500 -0.032570 0.188458
												CHANNELS 3 Xrotation Yrotation Zrotation
												End Site
												{
													OFFSET 2.326485 -0.032578 0.188548
												}
											}
										}
									}
								}
								JOINT mixamorig:LeftHandMiddle1
								{
									OFFSET 7.394897 0.286369 0.654762
									CHANNELS 3 Xrotation Yrotation Zrotation
									JOINT mixamorig:LeftHandMiddle2
									{
										OFFSET 3.376106 0.152466 -0.003692
										CHANNELS 3 Xrotation Yrotation Zrotation
										JOINT mixamorig:LeftHandMiddle3
										{
											OFFSET 3.185104 -0.185410 -0.047914
											CHANNELS 3 Xrotation Yrotation Zrotation
											JOINT mixamorig:LeftHandMiddle4
											{
												OFFSET 2.742905 0.223846 0.010354
												CHANNELS 3 Xrotation Yrotation Zrotation
												End Site
												{
													OFFSET 2.742889 0.224251 0.006757
												}
											}
										}
									}
								}
								JOINT mixamorig:LeftHandRing1
								{
									OFFSET 7.508747 0.282753 -1.072900
									CHANNELS 3 Xrotation Yrotation Zrotation
									JOINT mixamorig:LeftHandRing2
									{
										OFFSET 2.821857 0.317802 -0.177266
										CHANNELS 3 Xrotation Yrotation Zrotation
										JOINT mixamorig:LeftHandRing3
										{
											OFFSET 2.672325 0.088310 -0.196165
											CHANNELS 3 Xrotation Yrotation Zrotation
											JOINT mixamorig:LeftHandRing4
											{
												OFFSET 2.272652 -0.053627 -0.183955
												CHANNELS 3 Xrotation Yrotation Zrotation
												End Site
												{
													OFFSET 2.272919 -0.054016 -0.180438
												}
											}
										}
									}
								}
								JOINT mixamorig:LeftHandPinky1
								{
									OFFSET 7.285820 0.522377 -2.660948
									CHANNELS 3 Xrotation Yrotation Zrotation
									JOINT mixamorig:LeftHandPinky2
									{
										OFFSET 2.466278 0.082008 -0.249570
										CHANNELS 3 Xrotation Yrotation Zrotation
										JOINT mixamorig:LeftHandPinky3
										{
											OFFSET 1.940475 0.021858 -0.202004
											CHANNELS 3 Xrotation Yrotation Zrotation
											JOINT mixamorig:LeftHandPinky4
											{
												OFFSET 1.645287 0.153595 -0.153405
												CHANNELS 3 Xrotation Yrotation Zrotation
												End Site
												{
													OFFSET 1.645088 0.153801 -0.155289
												}
											}
										}
									}
								}
							}
						}
					}
				}
				JOINT mixamorig:RightShoulder
				{
					OFFSET -3.414604 7.343132 -0.036860
					CHANNELS 3 Xrotation Yrotation Zrotation
					JOINT mixamorig:RightArm
					{
						OFFSET -6.829551 -2.246986 0.022068
						CHANNELS 3 Xrotation Yrotation Zrotation
						JOINT mixamorig:RightForeArm
						{
							OFFSET -24.198494 -0.424141 0.158696
							CHANNELS 3 Xrotation Yrotation Zrotation
							JOINT mixamorig:RightHand
							{
								OFFSET -21.584698 -0.002243 0.686977
								CHANNELS 3 Xrotation Yrotation Zrotation
								JOINT mixamorig:RightHandThumb1
								{
									OFFSET -2.242882 -1.296806 1.978855
									CHANNELS 3 Xrotation Yrotation Zrotation
									JOINT mixamorig:RightHandThumb2
									{
										OFFSET -1.794239 -1.037361 1.583064
										CHANNELS 3 Xrotation Yrotation Zrotation
										JOINT mixamorig:RightHandThumb3
										{
											OFFSET -2.504150 -0.962166 1.471556
											CHANNELS 3 Xrotation Yrotation Zrotation
											JOINT mixamorig:RightHandThumb4
											{
												OFFSET -2.346046 -0.743172 0.992235
												CHANNELS 3 Xrotation Yrotation Zrotation
												End Site
												{
													OFFSET -2.157112 -0.792709 1.326359
												}
											}
										}
									}
								}
								JOINT mixamorig:RightHandIndex1
								{
									OFFSET -7.174488 -0.001839 2.366265
									CHANNELS 3 Xrotation Yrotation Zrotation
									JOINT mixamorig:RightHandIndex2
									{
										OFFSET -2.935219 -0.016853 0.287245
										CHANNELS 3 Xrotation Yrotation Zrotation
										JOINT mixamorig:RightHandIndex3
										{
											OFFSET -2.786827 -0.129890 0.255971
											CHANNELS 3 Xrotation Yrotation Zrotation
											JOINT mixamorig:RightHandIndex4
											{
												OFFSET -2.343559 0.168816 0.256164
												CHANNELS 3 Xrotation Yrotation Zrotation
												End Site
												{
													OFFSET -2.344208 0.169510 0.249690
												}
											}
										}
									}
								}
								JOINT mixamorig:RightHandMiddle1
								{
									OFFSET -7.274693 0.327965 0.656181
									CHANNELS 3 Xrotation Yrotation Zrotation
									JOINT mixamorig:RightHandMiddle2
									{
										OFFSET -3.309677 0.091591 0.032863
										CHANNELS 3 Xrotation Yrotation Zrotation
										JOINT mixamorig:RightHandMiddle3
										{
											OFFSET -3.186844 -0.122513 0.000971
											CHANNELS 3 Xrotation Yrotation Zrotation
											JOINT mixamorig:RightHandMiddle4
											{
												OFFSET -2.671951 -0.322540 -0.031001
												CHANNELS 3 Xrotation Yrotation Zrotation
												End Site
												{
													OFFSET -2.671928 -0.323486 -0.021820
												}
											}
										}
									}
								}
								JOINT mixamorig:RightHandRing1
								{
									OFFSET -7.453640 0.430428 -1.170334
									CHANNELS 3 Xrotation Yrotation Zrotation
									JOINT mixamorig:RightHandRing2
									{
										OFFSET -2.808174 0.165817 -0.117934
										CHANNELS 3 Xrotation Yrotation Zrotation
										JOINT mixamorig:RightHandRing3
										{
											OFFSET -2.730080 0.127754 -0.119542
											CHANNELS 3 Xrotation Yrotation Zrotation
											JOINT mixamorig:RightHandRing4
											{
												OFFSET -2.349426 0.078133 -0.107466
												CHANNELS 3 Xrotation Yrotation Zrotation
												End Site
												{
													OFFSET -2.349503 0.077988 -0.106043
												}
											}
										}
									}
								}
								JOINT mixamorig:RightHandPinky1
								{
									OFFSET -7.364456 0.463486 -2.604800
									CHANNELS 3 Xrotation Yrotation Zrotation
									JOINT mixamorig:RightHandPinky2
									{
										OFFSET -2.430134 0.174614 -0.251330
										CHANNELS 3 Xrotation Yrotation Zrotation
										JOINT mixamorig:RightHandPinky3
										{
											OFFSET -1.953583 0.007492 -0.220999
											CHANNELS 3 Xrotation Yrotation Zrotation
											JOINT mixamorig:RightHandPinky4
											{
												OFFSET -1.582039 0.276558 -0.139972
												CHANNELS 3 Xrotation Yrotation Zrotation
												End Site
												{
													OFFSET -1.581284 0.277252 -0.147002
												}
											}
										}
									}
								}
							}
						}
					}
				}
			}
		}
	}
	JOINT mixamorig:LeftUpLeg
	{
		OFFSET 6.620181 -8.816864 -0.447179
		CHANNELS 3 Xrotation Yrotation Zrotation
		JOINT mixamorig:LeftLeg
		{
			OFFSET 2.748989 -36.076775 0.650871
			CHANNELS 3 Xrotation Yrotation Zrotation
			JOINT mixamorig:LeftFoot
			{
				OFFSET 1.089303 -46.239017 1.019056
				CHANNELS 3 Xrotation Yrotation Zrotation
				JOINT mixamorig:LeftToeBase
				{
					OFFSET -0.371088 -10.380511 12.650617
					CHANNELS 3 Xrotation Yrotation Zrotation
					JOINT mixamorig:LeftToe_End
					{
						OFFSET -0.094684 -0.116785 6.663326
						CHANNELS 3 Xrotation Yrotation Zrotation
						End Site
						{
							OFFSET -0.094684 -0.116785 6.663326
						}
					}
				}
			}
		}
	}
	JOINT mixamorig:RightUpLeg
	{
		OFFSET -6.620174 -8.816818 -0.447182
		CHANNELS 3 Xrotation Yrotation Zrotation
		JOINT mixamorig:RightLeg
		{
			OFFSET -2.748991 -36.076790 0.753614
			CHANNELS 3 Xrotation Yrotation Zrotation
			JOINT mixamorig:RightFoot
			{
				OFFSET -1.089311 -46.239029 0.372114
				CHANNELS 3 Xrotation Yrotation Zrotation
				JOINT mixamorig:RightToeBase
				{
					OFFSET 0.371103 -10.380659 13.284531
					CHANNELS 3 Xrotation Yrotation Zrotation
					JOINT mixamorig:RightToe_End
					{
						OFFSET 0.094689 -0.116865 6.675873
						CHANNELS 3 Xrotation Yrotation Zrotation
						End Site
						{
							OFFSET 0.094687 -0.116865 6.675871
						}
					}
				}
			}
		}
	}
}
MOTION
Frames: 6
Frame Time: 0.016667
-0.129572 101.350143 1.089608 -2.453990 -8.406884 -1.597140 2.436416 2.456214 2.744065 0.205625 0.337204 -1.683445 0.214786 0.328717 -1.683991 3.116279 -0.804270 2.327669 11.965143 -0.693033 0.065031 0.000002 -0.000000 0.000000 -0.330935 5.900054 1.668181 16.439895 -8.347079 7.489146 -0.094007 -6.528849 -1.001859 -7.764331 23.884751 -11.780613 0.765589 12.565844 10.875519 2.110318 7.602520 -3.048722 -1.267154 -5.336460 -1.339422 0.000003 0.000004 0.000002 0.423081 1.272132 -4.609746 0.421875 1.106751 -4.482745 0.480469 1.118361 -5.100019 -0.000001 0.000000 -0.000000 0.330431 -2.724885 -10.899406 0.045575 1.698428 -5.096860 0.423876 3.467902 -18.713424 -0.000000 0.000000 0.000003 -0.240729 -4.804416 -20.748330 -0.756453 3.403564 -13.315426 -0.694750 3.617651 -14.759991 -0.000001 -0.000001 -0.000002 0.638481 -0.918419 -24.928411 -1.261291 1.553564 -23.462011 -1.543597 6.509789 -28.456337 0.000000 -0.000002 0.000000 1.158605 10.694879 0.627657 -0.422076 1.679885 -2.244245 0.019739 -0.033804 0.997487 -3.943823 -7.648981 11.493646 0.543806 -19.414630 -7.353536 3.312424 -12.046157 3.698486 -2.245378 7.265012 0.847931 -0.000001 -0.000003 0.000001 1.761467 -3.954826 14.311425 1.718515 -2.919593 13.571515 2.317270 -3.158508 18.327792 -0.000001 0.000001 -0.000002 0.673437 1.077281 15.609115 0.606232 -3.595943 15.956618 0.510407 -3.010510 12.847245 0.000000 0.000000 0.000001 0.075936 3.261864 20.737101 -0.206694 -5.230827 24.204693 -0.221440 -5.020324 23.193420 0.000001 0.000001 -0.000000 -1.142189 4.734347 29.390338 -1.688699 -6.206860 26.506964 -1.830786 -8.294089 38.540999 -0.000000 -0.000001 0.000001 -5.639716 17.607311 4.596625 20.451391 10.824025 -0.747662 -12.398056 9.268329 -2.667405 -0.000007 0.000003 0.000002 0.000000 -0.000002 -0.000000 -5.398949 -2.252293 1.137613 19.339008 -10.375603 -1.342597 -10.976638 -6.330946 0.842824 -0.017901 0.000009 0.000002 -0.000000 -0.000001 -0.000000 
-0.049765 101.467056 1.105626 -2.265611 -8.322550 -1.506742 2.222464 2.298671 2.789906 0.168606 0.315750 -1.743348 0.177452 0.307852 -1.743894 3.128092 -0.805155 2.350472 11.932570 -0.681127 0.139187 0.000001 0.000000 -0.000000 -0.314901 5.749035 1.653419 16.466428 -8.134731 7.417523 -0.088671 -6.227625 -1.001358 -7.841739 23.677780 -11.903117 0.765587 12.565846 10.875520 2.110319 7.602520 -3.048720 -1.267153 -5.336459 -1.339418 -0.000000 0.000001 -0.000000 0.464430 1.362283 -5.013454 0.446191 1.159474 -4.718512 0.498496 1.156736 -5.272322 -0.000001 -0.000001 0.000002 0.340685 -2.653820 -11.215083 0.049128 1.741462 -5.287364 0.431663 3.496730 -18.845397 0.000001 -0.000001 -0.000000 -0.241846 -4.733845 -21.048415 -0.759558 3.429297 -13.426400 -0.695820 3.631730 -14.820904 -0.000001 0.000002 0.000000 0.661151 -0.840679 -25.282449 -1.261232 1.551769 -23.454738 -1.543630 6.508444 -28.451006 0.000001 -0.000003 -0.000001 1.174261 10.902578 0.639927 -0.450851 1.669544 -2.311631 0.022000 -0.162346 0.997522 -3.829635 -6.398098 12.219768 0.543806 -19.414628 -7.353533 3.312424 -12.046161 3.698482 -2.245379 7.265008 0.847928 -0.000001 0.000000 0.000002 1.743315 -3.932229 14.189153 1.705092 -2.902803 13.481550 2.298132 -3.136959 18.205101 -0.000000 0.000001 0.000002 0.667198 1.098176 15.507096 0.600673 -3.579078 15.873232 0.504161 -2.989526 12.744368 0.000001 -0.000000 0.000003 0.073483 3.284683 20.631117 -0.209366 -5.215389 24.132035 -0.224336 -5.002171 23.108062 0.000000 0.000001 -0.000001 -1.141886 4.766149 29.256285 -1.688139 -6.194333 26.453739 -1.833019 -8.276849 38.468185 0.000000 -0.000000 -0.000001 -5.290626 17.238081 3.993444 19.556946 10.774454 -0.325877 -12.071868 10.332933 -2.656133 -0.000006 -0.000007 0.000004 0.000000 0.000001 -0.000000 -5.004337 -2.585038 0.858584 18.287582 -10.379338 -1.154363 -10.495504 -6.073131 0.918183 -0.016680 -0.000001 0.000003 -0.000000 -0.000001 0.000000 
0.064007 101.576218 1.120734 -1.989838 -8.194177 -1.382926 1.972478 2.078731 2.845380 0.088673 0.285891 -1.793899 0.096883 0.279009 -1.794571 3.146037 -0.800463 2.367717 11.950826 -0.634012 0.131346 0.000001 -0.000001 0.000000 -0.296566 5.570430 1.643168 16.546652 -7.876627 7.176437 -0.083468 -5.933148 -1.000912 -7.874390 23.574417 -12.089373 0.765589 12.565848 10.875519 2.110319 7.602520 -3.048724 -1.267152 -5.336460 -1.339421 0.000002 0.000003 -0.000001 0.505120 1.449422 -5.404989 0.477878 1.227385 -5.022808 0.521934 1.206167 -5.494684 0.000001 -0.000001 0.000001 0.351963 -2.578594 -11.549556 0.054376 1.801803 -5.554634 0.443564 3.540420 -19.045498 0.000002 -0.000000 0.000001 -0.242710 -4.650402 -21.403226 -0.765443 3.479384 -13.642272 -0.698365 3.666350 -14.970709 0.000000 -0.000001 -0.000000 0.691110 -0.740563 -25.739354 -1.262278 1.584172 -23.584964 -1.542962 6.532425 -28.546193 0.000000 -0.000001 0.000001 1.200979 11.258465 0.661218 -0.037150 1.446394 -2.666974 0.023781 -0.264323 0.997574 -3.281346 -4.944153 12.936789 0.543808 -19.414627 -7.353534 3.312426 -12.046163 3.698484 -2.245377 7.265010 0.847928 -0.000002 -0.000002 0.000003 1.724438 -3.908639 14.061727 1.688667 -2.882224 13.371273 2.274735 -3.110468 18.054674 -0.000001 0.000001 -0.000000 0.660342 1.121211 15.394618 0.593798 -3.558090 15.769367 0.496191 -2.962605 12.612496 0.000001 0.000000 0.000003 0.070651 3.311456 20.506750 -0.212919 -5.194784 24.034995 -0.228303 -4.976995 22.989708 -0.000000 0.000001 0.000001 -1.141409 4.805108 29.091955 -1.687283 -6.175249 26.372656 -1.836364 -8.250577 38.357332 -0.000000 -0.000000 -0.000002 -5.079556 16.800703 3.347791 18.750218 10.743975 0.115205 -11.832002 11.917726 -2.623407 -0.000010 0.000003 0.000000 0.000000 0.000000 0.000000 -4.720456 -3.002742 0.492074 17.259084 -10.379810 -0.895044 -10.003452 -5.787933 0.975657 -0.015212 0.000002 -0.000001 -0.000000 -0.000002 0.000000 
0.216301 101.655891 1.128312 -1.638304 -8.050357 -1.232151 1.711715 1.816504 2.911848 -0.025441 0.250363 -1.828194 -0.018141 0.244822 -1.829048 3.145987 -0.792726 2.387188 12.025017 -0.543792 0.004140 0.000001 0.000001 -0.000000 -0.277934 5.383649 1.638970 16.705051 -7.609343 6.836039 -0.079318 -5.699142 -1.000569 -7.821699 23.602275 -12.407034 0.765585 12.565848 10.875521 2.110318 7.602521 -3.048724 -1.267155 -5.336456 -1.339421 0.000001 0.000001 -0.000000 0.543559 1.530359 -5.769797 0.511227 1.297863 -5.339485 0.546523 1.257500 -5.726093 -0.000000 -0.000001 0.000001 0.363311 -2.505764 -11.873574 0.060308 1.866592 -5.841793 0.456831 3.588357 -19.265331 0.000000 -0.000001 0.000004 -0.243054 -4.566060 -21.761703 -0.772091 3.538105 -13.895303 -0.701374 3.708755 -15.154158 -0.000002 0.000001 0.000001 0.723108 -0.636639 -26.214848 -1.263646 1.631346 -23.774401 -1.541933 6.567295 -28.684660 0.000001 0.000001 0.000001 1.239725 11.786424 0.702035 0.650317 1.063448 -3.209653 0.025030 -0.335087 0.997597 -2.429806 -3.479236 13.569937 0.543807 -19.414627 -7.353535 3.312423 -12.046162 3.698483 -2.245380 7.265004 0.847926 -0.000001 0.000001 -0.000001 1.707352 -3.887211 13.946097 1.672278 -2.861550 13.260818 2.251375 -3.083880 17.904081 -0.000000 -0.000000 -0.000001 0.653938 1.142950 15.288639 0.586900 -3.536891 15.664612 0.488086 -2.935048 12.477554 0.000000 -0.000000 0.000002 0.067946 3.337658 20.385157 -0.216587 -5.173315 23.933826 -0.232445 -4.950298 22.864273 0.000001 -0.000000 0.000000 -1.140809 4.844156 28.927350 -1.686323 -6.154274 26.283437 -1.839987 -8.221668 38.235338 -0.000000 -0.000001 -0.000001 -5.095336 16.352482 2.739047 18.196459 10.739890 0.520191 -11.705730 14.104150 -2.570968 -0.000004 -0.000008 0.000003 0.000000 -0.000002 -0.000000 -4.626237 -3.454107 0.063956 16.399909 -10.375769 -0.608320 -9.556087 -5.514058 1.094990 -0.013507 0.000008 -0.000000 0.000000 0.000000 0.000000 
0.407072 101.708778 1.119939 -1.251933 -7.929129 -1.074004 1.498202 1.545861 2.995825 -0.162058 0.213794 -1.840513 -0.155805 0.209684 -1.841543 3.101092 -0.785965 2.418158 12.148332 -0.412147 -0.259159 0.000002 0.000000 -0.000000 -0.260980 5.210296 1.639248 16.993410 -7.357153 6.411557 -0.077373 -5.588486 -1.000415 -7.608202 23.834937 -12.974112 0.765586 12.565848 10.875518 2.110319 7.602516 -3.048725 -1.267158 -5.336459 -1.339418 0.000001 0.000001 -0.000002 0.580493 1.606876 -6.115800 0.542385 1.362818 -5.632088 0.569429 1.304834 -5.939921 -0.000001 -0.000001 0.000001 0.374343 -2.437416 -12.177938 0.066187 1.927450 -6.111611 0.469454 3.633358 -19.471910 0.000003 -0.000000 0.000000 -0.242898 -4.487617 -22.095100 -0.778218 3.594331 -14.137447 -0.704130 3.749655 -15.331046 -0.000001 -0.000002 -0.000001 0.753462 -0.540872 -26.654178 -1.264878 1.678436 -23.963509 -1.540819 6.602106 -28.822927 -0.000000 -0.000001 -0.000001 1.289521 12.489117 0.772121 1.613175 0.489586 -3.937409 0.025495 -0.361346 0.997615 -1.207872 -2.146396 14.050170 0.543809 -19.414628 -7.353534 3.312423 -12.046160 3.698482 -2.245379 7.265009 0.847930 -0.000002 -0.000002 0.000002 1.694094 -3.870480 13.856056 1.658560 -2.844230 13.168318 2.231847 -3.061561 17.777849 0.000002 -0.000000 0.000002 0.648837 1.160367 15.203685 0.581108 -3.519006 15.576296 0.481265 -2.911577 12.362677 -0.000000 0.000000 -0.000002 0.065761 3.359236 20.284994 -0.219690 -5.154763 23.846624 -0.236021 -4.927024 22.754915 -0.000000 0.000000 -0.000000 -1.140214 4.876858 28.789435 -1.685428 -6.135532 26.203785 -1.843174 -8.195841 38.126437 -0.000000 -0.000001 -0.000001 -5.281967 15.988655 2.247326 17.864848 10.752208 0.800630 -11.646818 16.858790 -2.475375 -0.000012 -0.000013 0.000002 -0.000000 0.000001 -0.000000 -4.697463 -3.883527 -0.372063 15.722238 -10.375533 -0.345801 -9.154780 -5.270826 1.266936 -0.011603 0.000003 0.000001 -0.000000 -0.000002 -0.000000 
0.631380 101.757431 1.085975 -0.892440 -7.864537 -0.937136 1.413739 1.308425 3.108258 -0.311734 0.181897 -1.830484 -0.306466 0.178988 -1.831676 2.989957 -0.785487 2.472507 12.304354 -0.250615 -0.644481 0.000003 -0.000001 0.000000 -0.246815 5.064593 1.640823 17.457470 -7.145369 5.967581 -0.078573 -5.656682 -1.000492 -7.137731 24.324368 -13.926795 0.765587 12.565845 10.875519 2.110322 7.602517 -3.048726 -1.267154 -5.336462 -1.339422 0.000001 -0.000002 -0.000002 0.618461 1.684335 -6.467116 0.569463 1.418556 -5.883873 0.589292 1.345474 -6.123855 0.000002 0.000001 -0.000002 0.385274 -2.371894 -12.469914 0.071547 1.980554 -6.347161 0.480414 3.671806 -19.648661 0.000001 0.000002 0.000004 -0.242351 -4.417003 -22.395263 -0.783248 3.642135 -14.343247 -0.706347 3.783879 -15.479073 -0.000001 -0.000001 0.000001 0.780149 -0.458666 -27.032178 -1.265755 1.716737 -24.117299 -1.539853 6.630408 -28.935331 -0.000001 0.000002 0.000002 1.346974 13.338901 0.876422 2.810544 -0.271635 -4.780208 0.025109 -0.339702 0.997608 0.402287 -1.125820 14.319208 0.543807 -19.414630 -7.353540 3.312425 -12.046163 3.698484 -2.245378 7.265011 0.847930 -0.000000 -0.000001 0.000000 1.685958 -3.860208 13.800895 1.649617 -2.832893 13.107841 2.219126 -3.046953 17.695403 0.000002 -0.000001 -0.000000 0.645630 1.171358 15.150218 0.577307 -3.507208 15.518043 0.476736 -2.895954 12.286262 0.000001 -0.000000 -0.000002 0.064368 3.373160 20.220440 -0.221803 -5.142259 23.787724 -0.238434 -4.911128 22.680249 -0.000001 -0.000000 0.000001 -1.139798 4.898249 28.699287 -1.684788 -6.122427 26.148056 -1.845370 -8.177785 38.050270 -0.000000 -0.000001 0.000000 -5.476116 15.824334 1.953483 17.579908 10.750835 0.840653 -11.599172 20.000969 -2.279518 -0.000013 -0.000024 -0.000000 0.000000 -0.000002 -0.000000 -4.844241 -4.251939 -0.742375 15.160127 -10.358881 -0.151794 -8.772049 -5.089585 1.352293 -0.009516 -0.000002 0.000003 -0.000000 0.000000 -0.000000 
